<svg width="37" height="26" viewBox="0 0 37 26" fill="none" xmlns="http://www.w3.org/2000/svg">
<path d="M34.7264 0H1.66994C0.747657 0 0 0.747365 0 1.66929C0 2.59121 0.747657 3.33857 1.66994 3.33857H34.7264C35.6486 3.33857 36.3963 2.59121 36.3963 1.66929C36.3963 0.747365 35.6486 0 34.7264 0Z" fill="white"/>
<path d="M34.7264 11.1162H1.66994C0.747657 11.1162 0 11.8636 0 12.7855C0 13.7074 0.747657 14.4548 1.66994 14.4548H34.7264C35.6486 14.4548 36.3963 13.7074 36.3963 12.7855C36.3963 11.8636 35.6486 11.1162 34.7264 11.1162Z" fill="white"/>
<path d="M34.7264 22.0947H1.66994C0.747657 22.0947 0 22.8421 0 23.764C0 24.6859 0.747657 25.4333 1.66994 25.4333H34.7264C35.6486 25.4333 36.3963 24.6859 36.3963 23.764C36.3963 22.8421 35.6486 22.0947 34.7264 22.0947Z" fill="white"/>
</svg>
