<svg width="34" height="37" viewBox="0 0 34 37" fill="none" xmlns="http://www.w3.org/2000/svg">
<path d="M22.4709 20.7991C28.1443 20.8226 32.8334 24.8742 33.5709 30.4918C33.7648 31.9725 33.684 33.4915 33.6752 34.9929C33.6708 35.6907 33.114 36.1813 32.4764 36.1872C31.8198 36.1931 31.2792 35.6818 31.2557 34.9547C31.2234 33.9293 31.2601 32.9024 31.2351 31.8756C31.1279 27.633 28.3294 24.2557 24.2014 23.4007C23.6138 23.2788 22.9997 23.2362 22.3974 23.2333C18.9452 23.2186 15.4915 23.2186 12.0393 23.2274C7.02694 23.2406 3.22509 27.0028 3.16045 32.0063C3.14723 32.9965 3.17367 33.9866 3.14282 34.9752C3.12373 35.5937 2.77997 35.9903 2.22762 36.1372C1.70611 36.2753 1.27862 36.1005 0.968656 35.6848C0.843789 35.5173 0.736549 35.2867 0.73508 35.0839C0.7057 32.9083 0.551451 30.7239 1.22574 28.5967C2.67126 24.0324 6.93292 20.8549 11.7293 20.8035C13.548 20.7844 20.711 20.7932 22.4738 20.8006L22.4709 20.7991Z" fill="white"/>
<path d="M25.9994 9.53874C26.0611 14.3028 22.1153 18.3133 17.3072 18.3735C12.4799 18.4352 8.45185 14.5129 8.39897 9.70034C8.34608 4.87163 12.2537 0.875864 17.0898 0.814164C21.9478 0.753934 25.9363 4.65715 25.9994 9.53874ZM17.2323 15.9349C20.7153 15.9187 23.5594 13.0585 23.5564 9.57547C23.5535 6.11443 20.6448 3.22485 17.1926 3.25129C13.6801 3.2792 10.8464 6.10562 10.8434 9.58575C10.8405 13.0865 13.7242 15.9511 17.2323 15.9349Z" fill="white"/>
</svg>
